<mxfile host="app.diagrams.net" agent="Mozilla/5.0 (Windows NT 10.0; Win64; x64) AppleWebKit/537.36 (KHTML, like Gecko) Chrome/140.0.0.0 Safari/537.36" version="28.2.5">
  <diagram name="Página-1" id="Gu9e9nC57M4yH-LepzSg">
    <mxGraphModel dx="2563" dy="1128" grid="1" gridSize="10" guides="1" tooltips="1" connect="1" arrows="1" fold="1" page="1" pageScale="1" pageWidth="827" pageHeight="1169" math="0" shadow="0">
      <root>
        <mxCell id="0" />
        <mxCell id="1" parent="0" />
        <mxCell id="jJwsBlfEbhZt40KhYKH2-1" value="CipaController" style="swimlane;fontStyle=1;align=center;verticalAlign=top;childLayout=stackLayout;horizontal=1;startSize=36.8;horizontalStack=0;resizeParent=1;resizeParentMax=0;resizeLast=0;collapsible=0;marginBottom=0;" parent="1" vertex="1">
          <mxGeometry x="1302" y="20" width="549" height="192.8" as="geometry" />
        </mxCell>
        <mxCell id="jJwsBlfEbhZt40KhYKH2-2" value="&quot;Controller: recebe requisições da API/Front e chama o UseCase.&quot;" style="text;strokeColor=none;fillColor=none;align=left;verticalAlign=top;spacingLeft=4;spacingRight=4;overflow=hidden;rotatable=0;points=[[0,0.5],[1,0.5]];portConstraint=eastwest;" parent="jJwsBlfEbhZt40KhYKH2-1" vertex="1">
          <mxGeometry y="36.8" width="549" height="37" as="geometry" />
        </mxCell>
        <mxCell id="jJwsBlfEbhZt40KhYKH2-3" style="line;strokeWidth=1;fillColor=none;align=left;verticalAlign=middle;spacingTop=-1;spacingLeft=3;spacingRight=3;rotatable=0;labelPosition=right;points=[];portConstraint=eastwest;strokeColor=inherit;" parent="jJwsBlfEbhZt40KhYKH2-1" vertex="1">
          <mxGeometry y="73.8" width="549" height="8" as="geometry" />
        </mxCell>
        <mxCell id="jJwsBlfEbhZt40KhYKH2-4" value="+CriarCipa(request: CriarCipaRequest) : : ActionResult" style="text;strokeColor=none;fillColor=none;align=left;verticalAlign=top;spacingLeft=4;spacingRight=4;overflow=hidden;rotatable=0;points=[[0,0.5],[1,0.5]];portConstraint=eastwest;" parent="jJwsBlfEbhZt40KhYKH2-1" vertex="1">
          <mxGeometry y="81.8" width="549" height="37" as="geometry" />
        </mxCell>
        <mxCell id="jJwsBlfEbhZt40KhYKH2-5" value="+ListarCipas() : : ActionResult" style="text;strokeColor=none;fillColor=none;align=left;verticalAlign=top;spacingLeft=4;spacingRight=4;overflow=hidden;rotatable=0;points=[[0,0.5],[1,0.5]];portConstraint=eastwest;" parent="jJwsBlfEbhZt40KhYKH2-1" vertex="1">
          <mxGeometry y="118.8" width="549" height="37" as="geometry" />
        </mxCell>
        <mxCell id="jJwsBlfEbhZt40KhYKH2-6" value="+Health() : : ActionResult" style="text;strokeColor=none;fillColor=none;align=left;verticalAlign=top;spacingLeft=4;spacingRight=4;overflow=hidden;rotatable=0;points=[[0,0.5],[1,0.5]];portConstraint=eastwest;" parent="jJwsBlfEbhZt40KhYKH2-1" vertex="1">
          <mxGeometry y="155.8" width="549" height="37" as="geometry" />
        </mxCell>
        <mxCell id="jJwsBlfEbhZt40KhYKH2-7" value="CriarCipaUseCase" style="swimlane;fontStyle=1;align=center;verticalAlign=top;childLayout=stackLayout;horizontal=1;startSize=45.333333333333336;horizontalStack=0;resizeParent=1;resizeParentMax=0;resizeLast=0;collapsible=0;marginBottom=0;" parent="1" vertex="1">
          <mxGeometry x="563" y="285" width="616" height="143.33333333333334" as="geometry" />
        </mxCell>
        <mxCell id="jJwsBlfEbhZt40KhYKH2-8" value="&quot;UseCase: regra de negócio — cria a CIPA, valida dados e usa repositório.&quot;" style="text;strokeColor=none;fillColor=none;align=left;verticalAlign=top;spacingLeft=4;spacingRight=4;overflow=hidden;rotatable=0;points=[[0,0.5],[1,0.5]];portConstraint=eastwest;" parent="jJwsBlfEbhZt40KhYKH2-7" vertex="1">
          <mxGeometry y="45.333333333333336" width="616" height="45" as="geometry" />
        </mxCell>
        <mxCell id="jJwsBlfEbhZt40KhYKH2-9" style="line;strokeWidth=1;fillColor=none;align=left;verticalAlign=middle;spacingTop=-1;spacingLeft=3;spacingRight=3;rotatable=0;labelPosition=right;points=[];portConstraint=eastwest;strokeColor=inherit;" parent="jJwsBlfEbhZt40KhYKH2-7" vertex="1">
          <mxGeometry y="90.33333333333334" width="616" height="8" as="geometry" />
        </mxCell>
        <mxCell id="jJwsBlfEbhZt40KhYKH2-10" value="+Execute() : : CriarCipaResponse" style="text;strokeColor=none;fillColor=none;align=left;verticalAlign=top;spacingLeft=4;spacingRight=4;overflow=hidden;rotatable=0;points=[[0,0.5],[1,0.5]];portConstraint=eastwest;" parent="jJwsBlfEbhZt40KhYKH2-7" vertex="1">
          <mxGeometry y="98.33333333333334" width="616" height="45" as="geometry" />
        </mxCell>
        <mxCell id="jJwsBlfEbhZt40KhYKH2-11" value="CriarCipaRequest" style="swimlane;fontStyle=1;align=center;verticalAlign=top;childLayout=stackLayout;horizontal=1;startSize=32;horizontalStack=0;resizeParent=1;resizeParentMax=0;resizeLast=0;collapsible=0;marginBottom=0;" parent="1" vertex="1">
          <mxGeometry x="1112" y="561" width="412" height="264" as="geometry" />
        </mxCell>
        <mxCell id="jJwsBlfEbhZt40KhYKH2-12" value="+Codigo : string" style="text;strokeColor=none;fillColor=none;align=left;verticalAlign=top;spacingLeft=4;spacingRight=4;overflow=hidden;rotatable=0;points=[[0,0.5],[1,0.5]];portConstraint=eastwest;" parent="jJwsBlfEbhZt40KhYKH2-11" vertex="1">
          <mxGeometry y="32" width="412" height="32" as="geometry" />
        </mxCell>
        <mxCell id="jJwsBlfEbhZt40KhYKH2-13" value="+Descricao : string" style="text;strokeColor=none;fillColor=none;align=left;verticalAlign=top;spacingLeft=4;spacingRight=4;overflow=hidden;rotatable=0;points=[[0,0.5],[1,0.5]];portConstraint=eastwest;" parent="jJwsBlfEbhZt40KhYKH2-11" vertex="1">
          <mxGeometry y="64" width="412" height="32" as="geometry" />
        </mxCell>
        <mxCell id="jJwsBlfEbhZt40KhYKH2-14" value="+DataInicio : DateTime" style="text;strokeColor=none;fillColor=none;align=left;verticalAlign=top;spacingLeft=4;spacingRight=4;overflow=hidden;rotatable=0;points=[[0,0.5],[1,0.5]];portConstraint=eastwest;" parent="jJwsBlfEbhZt40KhYKH2-11" vertex="1">
          <mxGeometry y="96" width="412" height="32" as="geometry" />
        </mxCell>
        <mxCell id="jJwsBlfEbhZt40KhYKH2-15" value="+DataFim : DateTime" style="text;strokeColor=none;fillColor=none;align=left;verticalAlign=top;spacingLeft=4;spacingRight=4;overflow=hidden;rotatable=0;points=[[0,0.5],[1,0.5]];portConstraint=eastwest;" parent="jJwsBlfEbhZt40KhYKH2-11" vertex="1">
          <mxGeometry y="128" width="412" height="32" as="geometry" />
        </mxCell>
        <mxCell id="jJwsBlfEbhZt40KhYKH2-16" value="+Criador : string" style="text;strokeColor=none;fillColor=none;align=left;verticalAlign=top;spacingLeft=4;spacingRight=4;overflow=hidden;rotatable=0;points=[[0,0.5],[1,0.5]];portConstraint=eastwest;" parent="jJwsBlfEbhZt40KhYKH2-11" vertex="1">
          <mxGeometry y="160" width="412" height="32" as="geometry" />
        </mxCell>
        <mxCell id="jJwsBlfEbhZt40KhYKH2-17" value="+Observacoes : string?" style="text;strokeColor=none;fillColor=none;align=left;verticalAlign=top;spacingLeft=4;spacingRight=4;overflow=hidden;rotatable=0;points=[[0,0.5],[1,0.5]];portConstraint=eastwest;" parent="jJwsBlfEbhZt40KhYKH2-11" vertex="1">
          <mxGeometry y="192" width="412" height="32" as="geometry" />
        </mxCell>
        <mxCell id="jJwsBlfEbhZt40KhYKH2-18" style="line;strokeWidth=1;fillColor=none;align=left;verticalAlign=middle;spacingTop=-1;spacingLeft=3;spacingRight=3;rotatable=0;labelPosition=right;points=[];portConstraint=eastwest;strokeColor=inherit;" parent="jJwsBlfEbhZt40KhYKH2-11" vertex="1">
          <mxGeometry y="224" width="412" height="8" as="geometry" />
        </mxCell>
        <mxCell id="jJwsBlfEbhZt40KhYKH2-19" value="&quot;DTO(input) : : dados de entrada do usuário.&quot;" style="text;strokeColor=none;fillColor=none;align=left;verticalAlign=top;spacingLeft=4;spacingRight=4;overflow=hidden;rotatable=0;points=[[0,0.5],[1,0.5]];portConstraint=eastwest;" parent="jJwsBlfEbhZt40KhYKH2-11" vertex="1">
          <mxGeometry y="232" width="412" height="32" as="geometry" />
        </mxCell>
        <mxCell id="jJwsBlfEbhZt40KhYKH2-20" value="CriarCipaResponse" style="swimlane;fontStyle=1;align=center;verticalAlign=top;childLayout=stackLayout;horizontal=1;startSize=29.333333333333332;horizontalStack=0;resizeParent=1;resizeParentMax=0;resizeLast=0;collapsible=0;marginBottom=0;" parent="1" vertex="1">
          <mxGeometry x="1574" y="513" width="521" height="356.3333333333333" as="geometry" />
        </mxCell>
        <mxCell id="jJwsBlfEbhZt40KhYKH2-21" value="+Id : Guid" style="text;strokeColor=none;fillColor=none;align=left;verticalAlign=top;spacingLeft=4;spacingRight=4;overflow=hidden;rotatable=0;points=[[0,0.5],[1,0.5]];portConstraint=eastwest;" parent="jJwsBlfEbhZt40KhYKH2-20" vertex="1">
          <mxGeometry y="29.333333333333332" width="521" height="29" as="geometry" />
        </mxCell>
        <mxCell id="jJwsBlfEbhZt40KhYKH2-22" value="+Codigo : string" style="text;strokeColor=none;fillColor=none;align=left;verticalAlign=top;spacingLeft=4;spacingRight=4;overflow=hidden;rotatable=0;points=[[0,0.5],[1,0.5]];portConstraint=eastwest;" parent="jJwsBlfEbhZt40KhYKH2-20" vertex="1">
          <mxGeometry y="58.33333333333333" width="521" height="29" as="geometry" />
        </mxCell>
        <mxCell id="jJwsBlfEbhZt40KhYKH2-23" value="+Descricao : string" style="text;strokeColor=none;fillColor=none;align=left;verticalAlign=top;spacingLeft=4;spacingRight=4;overflow=hidden;rotatable=0;points=[[0,0.5],[1,0.5]];portConstraint=eastwest;" parent="jJwsBlfEbhZt40KhYKH2-20" vertex="1">
          <mxGeometry y="87.33333333333333" width="521" height="29" as="geometry" />
        </mxCell>
        <mxCell id="jJwsBlfEbhZt40KhYKH2-24" value="+DataInicio : DateTime" style="text;strokeColor=none;fillColor=none;align=left;verticalAlign=top;spacingLeft=4;spacingRight=4;overflow=hidden;rotatable=0;points=[[0,0.5],[1,0.5]];portConstraint=eastwest;" parent="jJwsBlfEbhZt40KhYKH2-20" vertex="1">
          <mxGeometry y="116.33333333333333" width="521" height="29" as="geometry" />
        </mxCell>
        <mxCell id="jJwsBlfEbhZt40KhYKH2-25" value="+DataFim : DateTime" style="text;strokeColor=none;fillColor=none;align=left;verticalAlign=top;spacingLeft=4;spacingRight=4;overflow=hidden;rotatable=0;points=[[0,0.5],[1,0.5]];portConstraint=eastwest;" parent="jJwsBlfEbhZt40KhYKH2-20" vertex="1">
          <mxGeometry y="145.33333333333331" width="521" height="29" as="geometry" />
        </mxCell>
        <mxCell id="jJwsBlfEbhZt40KhYKH2-26" value="+DataCadastro : DateTime" style="text;strokeColor=none;fillColor=none;align=left;verticalAlign=top;spacingLeft=4;spacingRight=4;overflow=hidden;rotatable=0;points=[[0,0.5],[1,0.5]];portConstraint=eastwest;" parent="jJwsBlfEbhZt40KhYKH2-20" vertex="1">
          <mxGeometry y="174.33333333333331" width="521" height="29" as="geometry" />
        </mxCell>
        <mxCell id="jJwsBlfEbhZt40KhYKH2-27" value="+Criador : string" style="text;strokeColor=none;fillColor=none;align=left;verticalAlign=top;spacingLeft=4;spacingRight=4;overflow=hidden;rotatable=0;points=[[0,0.5],[1,0.5]];portConstraint=eastwest;" parent="jJwsBlfEbhZt40KhYKH2-20" vertex="1">
          <mxGeometry y="203.33333333333331" width="521" height="29" as="geometry" />
        </mxCell>
        <mxCell id="jJwsBlfEbhZt40KhYKH2-28" value="+Ativa : bool" style="text;strokeColor=none;fillColor=none;align=left;verticalAlign=top;spacingLeft=4;spacingRight=4;overflow=hidden;rotatable=0;points=[[0,0.5],[1,0.5]];portConstraint=eastwest;" parent="jJwsBlfEbhZt40KhYKH2-20" vertex="1">
          <mxGeometry y="232.33333333333331" width="521" height="29" as="geometry" />
        </mxCell>
        <mxCell id="jJwsBlfEbhZt40KhYKH2-29" value="+Sucesso : bool" style="text;strokeColor=none;fillColor=none;align=left;verticalAlign=top;spacingLeft=4;spacingRight=4;overflow=hidden;rotatable=0;points=[[0,0.5],[1,0.5]];portConstraint=eastwest;" parent="jJwsBlfEbhZt40KhYKH2-20" vertex="1">
          <mxGeometry y="261.3333333333333" width="521" height="29" as="geometry" />
        </mxCell>
        <mxCell id="jJwsBlfEbhZt40KhYKH2-30" value="+Mensagem : string" style="text;strokeColor=none;fillColor=none;align=left;verticalAlign=top;spacingLeft=4;spacingRight=4;overflow=hidden;rotatable=0;points=[[0,0.5],[1,0.5]];portConstraint=eastwest;" parent="jJwsBlfEbhZt40KhYKH2-20" vertex="1">
          <mxGeometry y="290.3333333333333" width="521" height="29" as="geometry" />
        </mxCell>
        <mxCell id="jJwsBlfEbhZt40KhYKH2-31" style="line;strokeWidth=1;fillColor=none;align=left;verticalAlign=middle;spacingTop=-1;spacingLeft=3;spacingRight=3;rotatable=0;labelPosition=right;points=[];portConstraint=eastwest;strokeColor=inherit;" parent="jJwsBlfEbhZt40KhYKH2-20" vertex="1">
          <mxGeometry y="319.3333333333333" width="521" height="8" as="geometry" />
        </mxCell>
        <mxCell id="jJwsBlfEbhZt40KhYKH2-32" value="&quot;DTO(output) : : resultado da operação enviado ao cliente.&quot;" style="text;strokeColor=none;fillColor=none;align=left;verticalAlign=top;spacingLeft=4;spacingRight=4;overflow=hidden;rotatable=0;points=[[0,0.5],[1,0.5]];portConstraint=eastwest;" parent="jJwsBlfEbhZt40KhYKH2-20" vertex="1">
          <mxGeometry y="327.3333333333333" width="521" height="29" as="geometry" />
        </mxCell>
        <mxCell id="jJwsBlfEbhZt40KhYKH2-33" value="Cipa" style="swimlane;fontStyle=1;align=center;verticalAlign=top;childLayout=stackLayout;horizontal=1;startSize=28.923076923076923;horizontalStack=0;resizeParent=1;resizeParentMax=0;resizeLast=0;collapsible=0;marginBottom=0;" parent="1" vertex="1">
          <mxGeometry x="625" y="501" width="437" height="384.9230769230769" as="geometry" />
        </mxCell>
        <mxCell id="jJwsBlfEbhZt40KhYKH2-34" value="&quot;Entidade de domínio: representa a CIPA e suas regras.&quot;" style="text;strokeColor=none;fillColor=none;align=left;verticalAlign=top;spacingLeft=4;spacingRight=4;overflow=hidden;rotatable=0;points=[[0,0.5],[1,0.5]];portConstraint=eastwest;" parent="jJwsBlfEbhZt40KhYKH2-33" vertex="1">
          <mxGeometry y="28.923076923076923" width="437" height="29" as="geometry" />
        </mxCell>
        <mxCell id="jJwsBlfEbhZt40KhYKH2-35" value="+Id : Guid" style="text;strokeColor=none;fillColor=none;align=left;verticalAlign=top;spacingLeft=4;spacingRight=4;overflow=hidden;rotatable=0;points=[[0,0.5],[1,0.5]];portConstraint=eastwest;" parent="jJwsBlfEbhZt40KhYKH2-33" vertex="1">
          <mxGeometry y="57.92307692307692" width="437" height="29" as="geometry" />
        </mxCell>
        <mxCell id="jJwsBlfEbhZt40KhYKH2-36" value="-Codigo : string" style="text;strokeColor=none;fillColor=none;align=left;verticalAlign=top;spacingLeft=4;spacingRight=4;overflow=hidden;rotatable=0;points=[[0,0.5],[1,0.5]];portConstraint=eastwest;" parent="jJwsBlfEbhZt40KhYKH2-33" vertex="1">
          <mxGeometry y="86.92307692307692" width="437" height="29" as="geometry" />
        </mxCell>
        <mxCell id="jJwsBlfEbhZt40KhYKH2-37" value="-Descricao : string" style="text;strokeColor=none;fillColor=none;align=left;verticalAlign=top;spacingLeft=4;spacingRight=4;overflow=hidden;rotatable=0;points=[[0,0.5],[1,0.5]];portConstraint=eastwest;" parent="jJwsBlfEbhZt40KhYKH2-33" vertex="1">
          <mxGeometry y="115.92307692307692" width="437" height="29" as="geometry" />
        </mxCell>
        <mxCell id="jJwsBlfEbhZt40KhYKH2-38" value="-DataInicio : DateTime" style="text;strokeColor=none;fillColor=none;align=left;verticalAlign=top;spacingLeft=4;spacingRight=4;overflow=hidden;rotatable=0;points=[[0,0.5],[1,0.5]];portConstraint=eastwest;" parent="jJwsBlfEbhZt40KhYKH2-33" vertex="1">
          <mxGeometry y="144.9230769230769" width="437" height="29" as="geometry" />
        </mxCell>
        <mxCell id="jJwsBlfEbhZt40KhYKH2-39" value="-DataFim : DateTime" style="text;strokeColor=none;fillColor=none;align=left;verticalAlign=top;spacingLeft=4;spacingRight=4;overflow=hidden;rotatable=0;points=[[0,0.5],[1,0.5]];portConstraint=eastwest;" parent="jJwsBlfEbhZt40KhYKH2-33" vertex="1">
          <mxGeometry y="173.9230769230769" width="437" height="29" as="geometry" />
        </mxCell>
        <mxCell id="jJwsBlfEbhZt40KhYKH2-40" value="-DataCadastro : DateTime" style="text;strokeColor=none;fillColor=none;align=left;verticalAlign=top;spacingLeft=4;spacingRight=4;overflow=hidden;rotatable=0;points=[[0,0.5],[1,0.5]];portConstraint=eastwest;" parent="jJwsBlfEbhZt40KhYKH2-33" vertex="1">
          <mxGeometry y="202.9230769230769" width="437" height="29" as="geometry" />
        </mxCell>
        <mxCell id="jJwsBlfEbhZt40KhYKH2-41" value="-Criador : string" style="text;strokeColor=none;fillColor=none;align=left;verticalAlign=top;spacingLeft=4;spacingRight=4;overflow=hidden;rotatable=0;points=[[0,0.5],[1,0.5]];portConstraint=eastwest;" parent="jJwsBlfEbhZt40KhYKH2-33" vertex="1">
          <mxGeometry y="231.9230769230769" width="437" height="29" as="geometry" />
        </mxCell>
        <mxCell id="jJwsBlfEbhZt40KhYKH2-42" value="-Observacoes : string?" style="text;strokeColor=none;fillColor=none;align=left;verticalAlign=top;spacingLeft=4;spacingRight=4;overflow=hidden;rotatable=0;points=[[0,0.5],[1,0.5]];portConstraint=eastwest;" parent="jJwsBlfEbhZt40KhYKH2-33" vertex="1">
          <mxGeometry y="260.9230769230769" width="437" height="29" as="geometry" />
        </mxCell>
        <mxCell id="jJwsBlfEbhZt40KhYKH2-43" value="-Ativa : bool" style="text;strokeColor=none;fillColor=none;align=left;verticalAlign=top;spacingLeft=4;spacingRight=4;overflow=hidden;rotatable=0;points=[[0,0.5],[1,0.5]];portConstraint=eastwest;" parent="jJwsBlfEbhZt40KhYKH2-33" vertex="1">
          <mxGeometry y="289.9230769230769" width="437" height="29" as="geometry" />
        </mxCell>
        <mxCell id="jJwsBlfEbhZt40KhYKH2-44" style="line;strokeWidth=1;fillColor=none;align=left;verticalAlign=middle;spacingTop=-1;spacingLeft=3;spacingRight=3;rotatable=0;labelPosition=right;points=[];portConstraint=eastwest;strokeColor=inherit;" parent="jJwsBlfEbhZt40KhYKH2-33" vertex="1">
          <mxGeometry y="318.9230769230769" width="437" height="8" as="geometry" />
        </mxCell>
        <mxCell id="jJwsBlfEbhZt40KhYKH2-45" value="+AtualizarDescricao(novaDescricao: string)" style="text;strokeColor=none;fillColor=none;align=left;verticalAlign=top;spacingLeft=4;spacingRight=4;overflow=hidden;rotatable=0;points=[[0,0.5],[1,0.5]];portConstraint=eastwest;" parent="jJwsBlfEbhZt40KhYKH2-33" vertex="1">
          <mxGeometry y="326.9230769230769" width="437" height="29" as="geometry" />
        </mxCell>
        <mxCell id="jJwsBlfEbhZt40KhYKH2-46" value="+Inativar()" style="text;strokeColor=none;fillColor=none;align=left;verticalAlign=top;spacingLeft=4;spacingRight=4;overflow=hidden;rotatable=0;points=[[0,0.5],[1,0.5]];portConstraint=eastwest;" parent="jJwsBlfEbhZt40KhYKH2-33" vertex="1">
          <mxGeometry y="355.9230769230769" width="437" height="29" as="geometry" />
        </mxCell>
        <mxCell id="jJwsBlfEbhZt40KhYKH2-47" value="ICipaRepository" style="swimlane;fontStyle=1;align=center;verticalAlign=top;childLayout=stackLayout;horizontal=1;startSize=29.523809523809526;horizontalStack=0;resizeParent=1;resizeParentMax=0;resizeLast=0;collapsible=0;marginBottom=0;" parent="1" vertex="1">
          <mxGeometry x="75" y="534" width="499" height="307.5238095238095" as="geometry" />
        </mxCell>
        <mxCell id="jJwsBlfEbhZt40KhYKH2-48" style="line;strokeWidth=1;fillColor=none;align=left;verticalAlign=middle;spacingTop=-1;spacingLeft=3;spacingRight=3;rotatable=0;labelPosition=right;points=[];portConstraint=eastwest;strokeColor=inherit;" parent="jJwsBlfEbhZt40KhYKH2-47" vertex="1">
          <mxGeometry y="29.523809523809526" width="499" height="8" as="geometry" />
        </mxCell>
        <mxCell id="jJwsBlfEbhZt40KhYKH2-49" value="&quot;Interface(contrato) : : define operações de persistência.&quot;" style="text;strokeColor=none;fillColor=none;align=left;verticalAlign=top;spacingLeft=4;spacingRight=4;overflow=hidden;rotatable=0;points=[[0,0.5],[1,0.5]];portConstraint=eastwest;" parent="jJwsBlfEbhZt40KhYKH2-47" vertex="1">
          <mxGeometry y="37.523809523809526" width="499" height="30" as="geometry" />
        </mxCell>
        <mxCell id="jJwsBlfEbhZt40KhYKH2-50" value="+GetByIdAsync(id: Guid) : : Task" style="text;strokeColor=none;fillColor=none;align=left;verticalAlign=top;spacingLeft=4;spacingRight=4;overflow=hidden;rotatable=0;points=[[0,0.5],[1,0.5]];portConstraint=eastwest;" parent="jJwsBlfEbhZt40KhYKH2-47" vertex="1">
          <mxGeometry y="67.52380952380952" width="499" height="30" as="geometry" />
        </mxCell>
        <mxCell id="jJwsBlfEbhZt40KhYKH2-51" value="+GetByCodigoAsync(codigo: string) : : Task" style="text;strokeColor=none;fillColor=none;align=left;verticalAlign=top;spacingLeft=4;spacingRight=4;overflow=hidden;rotatable=0;points=[[0,0.5],[1,0.5]];portConstraint=eastwest;" parent="jJwsBlfEbhZt40KhYKH2-47" vertex="1">
          <mxGeometry y="97.52380952380952" width="499" height="30" as="geometry" />
        </mxCell>
        <mxCell id="jJwsBlfEbhZt40KhYKH2-52" value="+GetAllAsync() : : Task" style="text;strokeColor=none;fillColor=none;align=left;verticalAlign=top;spacingLeft=4;spacingRight=4;overflow=hidden;rotatable=0;points=[[0,0.5],[1,0.5]];portConstraint=eastwest;" parent="jJwsBlfEbhZt40KhYKH2-47" vertex="1">
          <mxGeometry y="127.52380952380952" width="499" height="30" as="geometry" />
        </mxCell>
        <mxCell id="jJwsBlfEbhZt40KhYKH2-53" value="+GetAtivasAsync() : : Task" style="text;strokeColor=none;fillColor=none;align=left;verticalAlign=top;spacingLeft=4;spacingRight=4;overflow=hidden;rotatable=0;points=[[0,0.5],[1,0.5]];portConstraint=eastwest;" parent="jJwsBlfEbhZt40KhYKH2-47" vertex="1">
          <mxGeometry y="157.52380952380952" width="499" height="30" as="geometry" />
        </mxCell>
        <mxCell id="jJwsBlfEbhZt40KhYKH2-54" value="+AddAsync(cipa: Cipa) : : Task" style="text;strokeColor=none;fillColor=none;align=left;verticalAlign=top;spacingLeft=4;spacingRight=4;overflow=hidden;rotatable=0;points=[[0,0.5],[1,0.5]];portConstraint=eastwest;" parent="jJwsBlfEbhZt40KhYKH2-47" vertex="1">
          <mxGeometry y="187.52380952380952" width="499" height="30" as="geometry" />
        </mxCell>
        <mxCell id="jJwsBlfEbhZt40KhYKH2-55" value="+UpdateAsync(cipa: Cipa) : : Task" style="text;strokeColor=none;fillColor=none;align=left;verticalAlign=top;spacingLeft=4;spacingRight=4;overflow=hidden;rotatable=0;points=[[0,0.5],[1,0.5]];portConstraint=eastwest;" parent="jJwsBlfEbhZt40KhYKH2-47" vertex="1">
          <mxGeometry y="217.52380952380952" width="499" height="30" as="geometry" />
        </mxCell>
        <mxCell id="jJwsBlfEbhZt40KhYKH2-56" value="+DeleteAsync(id: Guid) : : Task" style="text;strokeColor=none;fillColor=none;align=left;verticalAlign=top;spacingLeft=4;spacingRight=4;overflow=hidden;rotatable=0;points=[[0,0.5],[1,0.5]];portConstraint=eastwest;" parent="jJwsBlfEbhZt40KhYKH2-47" vertex="1">
          <mxGeometry y="247.52380952380952" width="499" height="30" as="geometry" />
        </mxCell>
        <mxCell id="jJwsBlfEbhZt40KhYKH2-57" value="+ExisteCodigoAsync(codigo: string) : : Task" style="text;strokeColor=none;fillColor=none;align=left;verticalAlign=top;spacingLeft=4;spacingRight=4;overflow=hidden;rotatable=0;points=[[0,0.5],[1,0.5]];portConstraint=eastwest;" parent="jJwsBlfEbhZt40KhYKH2-47" vertex="1">
          <mxGeometry y="277.5238095238095" width="499" height="30" as="geometry" />
        </mxCell>
        <mxCell id="jJwsBlfEbhZt40KhYKH2-58" value="CipaRepository" style="swimlane;fontStyle=1;align=center;verticalAlign=top;childLayout=stackLayout;horizontal=1;startSize=29.818181818181817;horizontalStack=0;resizeParent=1;resizeParentMax=0;resizeLast=0;collapsible=0;marginBottom=0;" parent="1" vertex="1">
          <mxGeometry x="20" y="958" width="610" height="337.8181818181818" as="geometry" />
        </mxCell>
        <mxCell id="jJwsBlfEbhZt40KhYKH2-59" value="-_context : CipaDbContext" style="text;strokeColor=none;fillColor=none;align=left;verticalAlign=top;spacingLeft=4;spacingRight=4;overflow=hidden;rotatable=0;points=[[0,0.5],[1,0.5]];portConstraint=eastwest;" parent="jJwsBlfEbhZt40KhYKH2-58" vertex="1">
          <mxGeometry y="29.818181818181817" width="610" height="30" as="geometry" />
        </mxCell>
        <mxCell id="jJwsBlfEbhZt40KhYKH2-60" style="line;strokeWidth=1;fillColor=none;align=left;verticalAlign=middle;spacingTop=-1;spacingLeft=3;spacingRight=3;rotatable=0;labelPosition=right;points=[];portConstraint=eastwest;strokeColor=inherit;" parent="jJwsBlfEbhZt40KhYKH2-58" vertex="1">
          <mxGeometry y="59.81818181818181" width="610" height="8" as="geometry" />
        </mxCell>
        <mxCell id="jJwsBlfEbhZt40KhYKH2-61" value="&quot;Repository: implementa ICipaRepository e executa queries(ORM/SQL) : .&quot;" style="text;strokeColor=none;fillColor=none;align=left;verticalAlign=top;spacingLeft=4;spacingRight=4;overflow=hidden;rotatable=0;points=[[0,0.5],[1,0.5]];portConstraint=eastwest;" parent="jJwsBlfEbhZt40KhYKH2-58" vertex="1">
          <mxGeometry y="67.81818181818181" width="610" height="30" as="geometry" />
        </mxCell>
        <mxCell id="jJwsBlfEbhZt40KhYKH2-62" value="+GetByIdAsync(id: Guid) : : Task" style="text;strokeColor=none;fillColor=none;align=left;verticalAlign=top;spacingLeft=4;spacingRight=4;overflow=hidden;rotatable=0;points=[[0,0.5],[1,0.5]];portConstraint=eastwest;" parent="jJwsBlfEbhZt40KhYKH2-58" vertex="1">
          <mxGeometry y="97.81818181818181" width="610" height="30" as="geometry" />
        </mxCell>
        <mxCell id="jJwsBlfEbhZt40KhYKH2-63" value="+GetByCodigoAsync(codigo: string) : : Task" style="text;strokeColor=none;fillColor=none;align=left;verticalAlign=top;spacingLeft=4;spacingRight=4;overflow=hidden;rotatable=0;points=[[0,0.5],[1,0.5]];portConstraint=eastwest;" parent="jJwsBlfEbhZt40KhYKH2-58" vertex="1">
          <mxGeometry y="127.81818181818181" width="610" height="30" as="geometry" />
        </mxCell>
        <mxCell id="jJwsBlfEbhZt40KhYKH2-64" value="+GetAllAsync() : : Task" style="text;strokeColor=none;fillColor=none;align=left;verticalAlign=top;spacingLeft=4;spacingRight=4;overflow=hidden;rotatable=0;points=[[0,0.5],[1,0.5]];portConstraint=eastwest;" parent="jJwsBlfEbhZt40KhYKH2-58" vertex="1">
          <mxGeometry y="157.8181818181818" width="610" height="30" as="geometry" />
        </mxCell>
        <mxCell id="jJwsBlfEbhZt40KhYKH2-65" value="+GetAtivasAsync() : : Task" style="text;strokeColor=none;fillColor=none;align=left;verticalAlign=top;spacingLeft=4;spacingRight=4;overflow=hidden;rotatable=0;points=[[0,0.5],[1,0.5]];portConstraint=eastwest;" parent="jJwsBlfEbhZt40KhYKH2-58" vertex="1">
          <mxGeometry y="187.8181818181818" width="610" height="30" as="geometry" />
        </mxCell>
        <mxCell id="jJwsBlfEbhZt40KhYKH2-66" value="+AddAsync(cipa: Cipa) : : Task" style="text;strokeColor=none;fillColor=none;align=left;verticalAlign=top;spacingLeft=4;spacingRight=4;overflow=hidden;rotatable=0;points=[[0,0.5],[1,0.5]];portConstraint=eastwest;" parent="jJwsBlfEbhZt40KhYKH2-58" vertex="1">
          <mxGeometry y="217.8181818181818" width="610" height="30" as="geometry" />
        </mxCell>
        <mxCell id="jJwsBlfEbhZt40KhYKH2-67" value="+UpdateAsync(cipa: Cipa) : : Task" style="text;strokeColor=none;fillColor=none;align=left;verticalAlign=top;spacingLeft=4;spacingRight=4;overflow=hidden;rotatable=0;points=[[0,0.5],[1,0.5]];portConstraint=eastwest;" parent="jJwsBlfEbhZt40KhYKH2-58" vertex="1">
          <mxGeometry y="247.8181818181818" width="610" height="30" as="geometry" />
        </mxCell>
        <mxCell id="jJwsBlfEbhZt40KhYKH2-68" value="+DeleteAsync(id: Guid) : : Task" style="text;strokeColor=none;fillColor=none;align=left;verticalAlign=top;spacingLeft=4;spacingRight=4;overflow=hidden;rotatable=0;points=[[0,0.5],[1,0.5]];portConstraint=eastwest;" parent="jJwsBlfEbhZt40KhYKH2-58" vertex="1">
          <mxGeometry y="277.8181818181818" width="610" height="30" as="geometry" />
        </mxCell>
        <mxCell id="jJwsBlfEbhZt40KhYKH2-69" value="+ExisteCodigoAsync(codigo: string) : : Task" style="text;strokeColor=none;fillColor=none;align=left;verticalAlign=top;spacingLeft=4;spacingRight=4;overflow=hidden;rotatable=0;points=[[0,0.5],[1,0.5]];portConstraint=eastwest;" parent="jJwsBlfEbhZt40KhYKH2-58" vertex="1">
          <mxGeometry y="307.8181818181818" width="610" height="30" as="geometry" />
        </mxCell>
        <mxCell id="jJwsBlfEbhZt40KhYKH2-70" value="CipaDbContext" style="swimlane;fontStyle=1;align=center;verticalAlign=top;childLayout=stackLayout;horizontal=1;startSize=40;horizontalStack=0;resizeParent=1;resizeParentMax=0;resizeLast=0;collapsible=0;marginBottom=0;" parent="1" vertex="1">
          <mxGeometry x="52" y="1367" width="545" height="168" as="geometry" />
        </mxCell>
        <mxCell id="jJwsBlfEbhZt40KhYKH2-71" value="&quot;DbContext: contexto do EF que mapeia entidades para tabelas.&quot;" style="text;strokeColor=none;fillColor=none;align=left;verticalAlign=top;spacingLeft=4;spacingRight=4;overflow=hidden;rotatable=0;points=[[0,0.5],[1,0.5]];portConstraint=eastwest;" parent="jJwsBlfEbhZt40KhYKH2-70" vertex="1">
          <mxGeometry y="40" width="545" height="40" as="geometry" />
        </mxCell>
        <mxCell id="jJwsBlfEbhZt40KhYKH2-72" value="+Cipas : DbSet" style="text;strokeColor=none;fillColor=none;align=left;verticalAlign=top;spacingLeft=4;spacingRight=4;overflow=hidden;rotatable=0;points=[[0,0.5],[1,0.5]];portConstraint=eastwest;" parent="jJwsBlfEbhZt40KhYKH2-70" vertex="1">
          <mxGeometry y="80" width="545" height="40" as="geometry" />
        </mxCell>
        <mxCell id="jJwsBlfEbhZt40KhYKH2-73" style="line;strokeWidth=1;fillColor=none;align=left;verticalAlign=middle;spacingTop=-1;spacingLeft=3;spacingRight=3;rotatable=0;labelPosition=right;points=[];portConstraint=eastwest;strokeColor=inherit;" parent="jJwsBlfEbhZt40KhYKH2-70" vertex="1">
          <mxGeometry y="120" width="545" height="8" as="geometry" />
        </mxCell>
        <mxCell id="jJwsBlfEbhZt40KhYKH2-74" value="+OnModelCreating(modelBuilder: ModelBuilder) : : void" style="text;strokeColor=none;fillColor=none;align=left;verticalAlign=top;spacingLeft=4;spacingRight=4;overflow=hidden;rotatable=0;points=[[0,0.5],[1,0.5]];portConstraint=eastwest;" parent="jJwsBlfEbhZt40KhYKH2-70" vertex="1">
          <mxGeometry y="128" width="545" height="40" as="geometry" />
        </mxCell>
        <mxCell id="jJwsBlfEbhZt40KhYKH2-75" value="TabelaCipas" style="swimlane;fontStyle=1;align=center;verticalAlign=top;childLayout=stackLayout;horizontal=1;startSize=29.818181818181817;horizontalStack=0;resizeParent=1;resizeParentMax=0;resizeLast=0;collapsible=0;marginBottom=0;" parent="1" vertex="1">
          <mxGeometry x="114" y="1607" width="421" height="337.8181818181818" as="geometry" />
        </mxCell>
        <mxCell id="jJwsBlfEbhZt40KhYKH2-76" value="&quot;Tabela no banco: onde os dados são persistidos.&quot;" style="text;strokeColor=none;fillColor=none;align=left;verticalAlign=top;spacingLeft=4;spacingRight=4;overflow=hidden;rotatable=0;points=[[0,0.5],[1,0.5]];portConstraint=eastwest;" parent="jJwsBlfEbhZt40KhYKH2-75" vertex="1">
          <mxGeometry y="29.818181818181817" width="421" height="30" as="geometry" />
        </mxCell>
        <mxCell id="jJwsBlfEbhZt40KhYKH2-77" value="*DataInicio : datetime2" style="text;strokeColor=none;fillColor=none;align=left;verticalAlign=top;spacingLeft=4;spacingRight=4;overflow=hidden;rotatable=0;points=[[0,0.5],[1,0.5]];portConstraint=eastwest;" parent="jJwsBlfEbhZt40KhYKH2-75" vertex="1">
          <mxGeometry y="59.81818181818181" width="421" height="30" as="geometry" />
        </mxCell>
        <mxCell id="jJwsBlfEbhZt40KhYKH2-78" value="*DataFim : datetime2" style="text;strokeColor=none;fillColor=none;align=left;verticalAlign=top;spacingLeft=4;spacingRight=4;overflow=hidden;rotatable=0;points=[[0,0.5],[1,0.5]];portConstraint=eastwest;" parent="jJwsBlfEbhZt40KhYKH2-75" vertex="1">
          <mxGeometry y="89.81818181818181" width="421" height="30" as="geometry" />
        </mxCell>
        <mxCell id="jJwsBlfEbhZt40KhYKH2-79" value="*DataCadastro : datetime2" style="text;strokeColor=none;fillColor=none;align=left;verticalAlign=top;spacingLeft=4;spacingRight=4;overflow=hidden;rotatable=0;points=[[0,0.5],[1,0.5]];portConstraint=eastwest;" parent="jJwsBlfEbhZt40KhYKH2-75" vertex="1">
          <mxGeometry y="119.81818181818181" width="421" height="30" as="geometry" />
        </mxCell>
        <mxCell id="jJwsBlfEbhZt40KhYKH2-80" value="*Ativa : bit" style="text;strokeColor=none;fillColor=none;align=left;verticalAlign=top;spacingLeft=4;spacingRight=4;overflow=hidden;rotatable=0;points=[[0,0.5],[1,0.5]];portConstraint=eastwest;" parent="jJwsBlfEbhZt40KhYKH2-75" vertex="1">
          <mxGeometry y="149.8181818181818" width="421" height="30" as="geometry" />
        </mxCell>
        <mxCell id="jJwsBlfEbhZt40KhYKH2-81" style="line;strokeWidth=1;fillColor=none;align=left;verticalAlign=middle;spacingTop=-1;spacingLeft=3;spacingRight=3;rotatable=0;labelPosition=right;points=[];portConstraint=eastwest;strokeColor=inherit;" parent="jJwsBlfEbhZt40KhYKH2-75" vertex="1">
          <mxGeometry y="179.8181818181818" width="421" height="8" as="geometry" />
        </mxCell>
        <mxCell id="jJwsBlfEbhZt40KhYKH2-82" value="*Id : uniqueidentifier(PK)" style="text;strokeColor=none;fillColor=none;align=left;verticalAlign=top;spacingLeft=4;spacingRight=4;overflow=hidden;rotatable=0;points=[[0,0.5],[1,0.5]];portConstraint=eastwest;" parent="jJwsBlfEbhZt40KhYKH2-75" vertex="1">
          <mxGeometry y="187.8181818181818" width="421" height="30" as="geometry" />
        </mxCell>
        <mxCell id="jJwsBlfEbhZt40KhYKH2-83" value="*Codigo : nvarchar(50)(UK)" style="text;strokeColor=none;fillColor=none;align=left;verticalAlign=top;spacingLeft=4;spacingRight=4;overflow=hidden;rotatable=0;points=[[0,0.5],[1,0.5]];portConstraint=eastwest;" parent="jJwsBlfEbhZt40KhYKH2-75" vertex="1">
          <mxGeometry y="217.8181818181818" width="421" height="30" as="geometry" />
        </mxCell>
        <mxCell id="jJwsBlfEbhZt40KhYKH2-84" value="*Descricao : nvarchar(200)" style="text;strokeColor=none;fillColor=none;align=left;verticalAlign=top;spacingLeft=4;spacingRight=4;overflow=hidden;rotatable=0;points=[[0,0.5],[1,0.5]];portConstraint=eastwest;" parent="jJwsBlfEbhZt40KhYKH2-75" vertex="1">
          <mxGeometry y="247.8181818181818" width="421" height="30" as="geometry" />
        </mxCell>
        <mxCell id="jJwsBlfEbhZt40KhYKH2-85" value="*Criador : nvarchar(100)" style="text;strokeColor=none;fillColor=none;align=left;verticalAlign=top;spacingLeft=4;spacingRight=4;overflow=hidden;rotatable=0;points=[[0,0.5],[1,0.5]];portConstraint=eastwest;" parent="jJwsBlfEbhZt40KhYKH2-75" vertex="1">
          <mxGeometry y="277.8181818181818" width="421" height="30" as="geometry" />
        </mxCell>
        <mxCell id="jJwsBlfEbhZt40KhYKH2-86" value="*Observacoes : nvarchar(500)" style="text;strokeColor=none;fillColor=none;align=left;verticalAlign=top;spacingLeft=4;spacingRight=4;overflow=hidden;rotatable=0;points=[[0,0.5],[1,0.5]];portConstraint=eastwest;" parent="jJwsBlfEbhZt40KhYKH2-75" vertex="1">
          <mxGeometry y="307.8181818181818" width="421" height="30" as="geometry" />
        </mxCell>
        <mxCell id="jJwsBlfEbhZt40KhYKH2-87" value="chama" style="curved=1;startArrow=none;endArrow=open;endSize=12;exitX=0;exitY=0.77;entryX=0.5;entryY=0;rounded=0;" parent="1" source="jJwsBlfEbhZt40KhYKH2-1" target="jJwsBlfEbhZt40KhYKH2-7" edge="1">
          <mxGeometry relative="1" as="geometry">
            <Array as="points">
              <mxPoint x="871" y="248" />
            </Array>
          </mxGeometry>
        </mxCell>
        <mxCell id="jJwsBlfEbhZt40KhYKH2-88" value="usa" style="curved=1;startArrow=none;endArrow=open;endSize=12;exitX=0;exitY=0.92;entryX=0.5;entryY=0;rounded=0;" parent="1" source="jJwsBlfEbhZt40KhYKH2-7" target="jJwsBlfEbhZt40KhYKH2-47" edge="1">
          <mxGeometry relative="1" as="geometry">
            <Array as="points">
              <mxPoint x="325" y="465" />
            </Array>
          </mxGeometry>
        </mxCell>
        <mxCell id="jJwsBlfEbhZt40KhYKH2-89" value="cria" style="curved=1;startArrow=none;endArrow=open;endSize=12;exitX=0.47;exitY=1;entryX=0.5;entryY=0;rounded=0;" parent="1" source="jJwsBlfEbhZt40KhYKH2-7" target="jJwsBlfEbhZt40KhYKH2-33" edge="1">
          <mxGeometry relative="1" as="geometry">
            <Array as="points">
              <mxPoint x="843" y="465" />
            </Array>
          </mxGeometry>
        </mxCell>
        <mxCell id="jJwsBlfEbhZt40KhYKH2-90" value="implementa" style="curved=1;dashed=1;startArrow=block;startSize=16;startFill=0;endArrow=none;exitX=0.5;exitY=1;entryX=0.5;entryY=0;rounded=0;" parent="1" source="jJwsBlfEbhZt40KhYKH2-47" target="jJwsBlfEbhZt40KhYKH2-58" edge="1">
          <mxGeometry relative="1" as="geometry">
            <Array as="points" />
          </mxGeometry>
        </mxCell>
        <mxCell id="jJwsBlfEbhZt40KhYKH2-91" value="usa" style="curved=1;startArrow=none;endArrow=open;endSize=12;exitX=0.5;exitY=1;entryX=0.5;entryY=0;rounded=0;" parent="1" source="jJwsBlfEbhZt40KhYKH2-58" target="jJwsBlfEbhZt40KhYKH2-70" edge="1">
          <mxGeometry relative="1" as="geometry">
            <Array as="points" />
          </mxGeometry>
        </mxCell>
        <mxCell id="jJwsBlfEbhZt40KhYKH2-92" value="mapeia EF" style="curved=1;startArrow=none;endArrow=open;endSize=12;exitX=0.5;exitY=1;entryX=0.5;entryY=0;rounded=0;" parent="1" source="jJwsBlfEbhZt40KhYKH2-70" target="jJwsBlfEbhZt40KhYKH2-75" edge="1">
          <mxGeometry relative="1" as="geometry">
            <Array as="points" />
          </mxGeometry>
        </mxCell>
        <mxCell id="jJwsBlfEbhZt40KhYKH2-93" value="input" style="curved=1;startArrow=none;endArrow=open;endSize=12;exitX=0.76;exitY=1;entryX=0.21;entryY=0;rounded=0;" parent="1" source="jJwsBlfEbhZt40KhYKH2-7" target="jJwsBlfEbhZt40KhYKH2-11" edge="1">
          <mxGeometry relative="1" as="geometry">
            <Array as="points">
              <mxPoint x="1109" y="465" />
            </Array>
          </mxGeometry>
        </mxCell>
        <mxCell id="jJwsBlfEbhZt40KhYKH2-94" value="output" style="curved=1;startArrow=none;endArrow=open;endSize=12;exitX=1;exitY=0.94;entryX=0;entryY=0.12;rounded=0;" parent="1" source="jJwsBlfEbhZt40KhYKH2-7" target="jJwsBlfEbhZt40KhYKH2-20" edge="1">
          <mxGeometry relative="1" as="geometry">
            <Array as="points">
              <mxPoint x="1401" y="465" />
            </Array>
          </mxGeometry>
        </mxCell>
        <mxCell id="jJwsBlfEbhZt40KhYKH2-95" value="recebe" style="curved=1;startArrow=none;endArrow=open;endSize=12;exitX=0.53;exitY=1;entryX=0.9;entryY=0;rounded=0;" parent="1" source="jJwsBlfEbhZt40KhYKH2-1" target="jJwsBlfEbhZt40KhYKH2-11" edge="1">
          <mxGeometry relative="1" as="geometry">
            <Array as="points">
              <mxPoint x="1600" y="248" />
              <mxPoint x="1600" y="465" />
            </Array>
          </mxGeometry>
        </mxCell>
        <mxCell id="jJwsBlfEbhZt40KhYKH2-96" value="retorna" style="curved=1;startArrow=none;endArrow=open;endSize=12;exitX=0.92;exitY=1;entryX=0.59;entryY=0;rounded=0;" parent="1" source="jJwsBlfEbhZt40KhYKH2-1" target="jJwsBlfEbhZt40KhYKH2-20" edge="1">
          <mxGeometry relative="1" as="geometry">
            <Array as="points">
              <mxPoint x="1896" y="248" />
              <mxPoint x="1896" y="465" />
            </Array>
          </mxGeometry>
        </mxCell>
      </root>
    </mxGraphModel>
  </diagram>
</mxfile>
